<?xml version="1.0" encoding="UTF-8" standalone="no"?>
<!DOCTYPE svg PUBLIC "-//W3C//DTD SVG 1.1//EN" "http://www.w3.org/Graphics/SVG/1.1/DTD/svg11.dtd">
<svg width="100%" height="100%" viewBox="0 0 210 295" version="1.1" xmlns="http://www.w3.org/2000/svg" xmlns:xlink="http://www.w3.org/1999/xlink" xml:space="preserve" xmlns:serif="http://www.serif.com/" style="fill-rule:evenodd;clip-rule:evenodd;stroke-linecap:round;stroke-linejoin:round;stroke-miterlimit:1.5;">
    <g transform="matrix(1,0,0,1,-513.803,-161.377)">
        <g transform="matrix(0.90625,0,0,1,0,0)">
            <g transform="matrix(1.42883,0,0,1.29487,-195.614,-136.472)">
                <circle cx="679.812" cy="276.307" r="11.999" style="fill:rgb(46,204,113);"/>
            </g>
        </g>
        <g transform="matrix(0.90625,0,0,1,0,0)">
            <g transform="matrix(1.07106,0,0,0.970652,-52.5923,-74.1839)">
                <circle cx="679.812" cy="276.307" r="11.999" style="fill:rgb(46,204,113);"/>
            </g>
        </g>
        <g transform="matrix(0.90625,0,0,1,0,0)">
            <g transform="matrix(1.42883,0,0,1.29487,-377.333,-115.856)">
                <circle cx="679.812" cy="276.307" r="11.999" style="fill:rgb(46,204,113);"/>
            </g>
        </g>
        <g transform="matrix(0.90625,0,0,1,0,0)">
            <g transform="matrix(0.455047,0,0,0.412386,602.154,275.567)">
                <path d="M342.4,314.3C323.3,289.4 300.2,273.2 267.2,264.1L236.2,372.6C236.2,382.6 228,390.8 218,390.8C208,390.8 199.8,382.6 199.8,372.6L199.8,286.3C199.8,273.8 189.6,263.6 177.1,263.6C164.6,263.6 154.4,273.8 154.4,286.3L154.4,372.6C154.4,382.6 146.2,390.8 136.2,390.8C126.2,390.8 118,382.6 118,372.6L87.1,264C54,273.3 31,289.3 11.9,314.2C4.4,324.1 0.3,343.8 0,354.3C0.1,357 0,360.2 0,363.4L0,399.8C0,419.9 16.3,436.1 36.3,436.1L318,436.1C338.1,436.1 354.3,419.8 354.3,399.8L354.3,381.6L354.3,363.4C354.3,360.2 354.2,357 354.3,354.3C354.1,343.8 350,324.1 342.4,314.3ZM81.8,96.1C81.8,149.2 114.9,227.1 177.2,227.1C238.4,227.1 272.6,149.1 272.6,96.1C272.6,43 229.9,0 177.2,0C124.5,0 81.8,43.1 81.8,96.1Z" style="fill:rgb(46,204,113);fill-rule:nonzero;"/>
                <clipPath id="_clip1">
                    <path d="M342.4,314.3C323.3,289.4 300.2,273.2 267.2,264.1L236.2,372.6C236.2,382.6 228,390.8 218,390.8C208,390.8 199.8,382.6 199.8,372.6L199.8,286.3C199.8,273.8 189.6,263.6 177.1,263.6C164.6,263.6 154.4,273.8 154.4,286.3L154.4,372.6C154.4,382.6 146.2,390.8 136.2,390.8C126.2,390.8 118,382.6 118,372.6L87.1,264C54,273.3 31,289.3 11.9,314.2C4.4,324.1 0.3,343.8 0,354.3C0.1,357 0,360.2 0,363.4L0,399.8C0,419.9 16.3,436.1 36.3,436.1L318,436.1C338.1,436.1 354.3,419.8 354.3,399.8L354.3,381.6L354.3,363.4C354.3,360.2 354.2,357 354.3,354.3C354.1,343.8 350,324.1 342.4,314.3ZM81.8,96.1C81.8,149.2 114.9,227.1 177.2,227.1C238.4,227.1 272.6,149.1 272.6,96.1C272.6,43 229.9,0 177.2,0C124.5,0 81.8,43.1 81.8,96.1Z" clip-rule="nonzero"/>
                </clipPath>
                <g clip-path="url(#_clip1)">
                    <g transform="matrix(2.42491,0,0,2.42491,-1323.28,-668.226)">
                        <ellipse cx="620.653" cy="430.842" rx="97.878" ry="58.538"/>
                    </g>
                    <g transform="matrix(2.69895,0,0,8.54297,-1493.21,-3021.22)">
                        <rect x="609.783" y="384.308" width="18.217" height="23.293" style="fill:rgb(46,204,113);"/>
                    </g>
                </g>
            </g>
        </g>
        <g transform="matrix(0.90625,0,0,1,0,0)">
            <g transform="matrix(0.0616394,0,0,0.0558607,648.269,343.518)">
                <path d="M324.339,191.232C324.339,191.232 404.932,110.69 552.064,110.69C699.196,110.69 794.952,191.232 794.952,191.232" style="fill:none;stroke:black;stroke-width:71.61px;"/>
            </g>
        </g>
        <g transform="matrix(0.90625,0,0,1,0,0)">
            <g transform="matrix(1.01033,-0.915613,1.01033,0.915613,-204.085,290.324)">
                <text x="415.585px" y="378.147px" style="font-family:'Nunito-Black', 'Nunito';font-weight:900;font-size:48px;">?</text>
            </g>
        </g>
        <g transform="matrix(0.90625,0,0,1,0,0)">
            <g transform="matrix(1.01033,0.915613,-1.01033,0.915613,708.014,-492.981)">
                <text x="415.585px" y="378.147px" style="font-family:'Nunito-Black', 'Nunito';font-weight:900;font-size:48px;">?</text>
            </g>
        </g>
        <g transform="matrix(0.90625,0,0,1,0,0)">
            <g transform="matrix(1.42883,0,0,1.29487,70.8232,-283.025)">
                <text x="415.585px" y="378.147px" style="font-family:'Nunito-Black', 'Nunito';font-weight:900;font-size:48px;">?</text>
            </g>
        </g>
    </g>
</svg>
