<?xml version="1.0" encoding="UTF-8" standalone="no"?>
<!DOCTYPE svg PUBLIC "-//W3C//DTD SVG 1.1//EN" "http://www.w3.org/Graphics/SVG/1.1/DTD/svg11.dtd">
<svg width="100%" height="100%" viewBox="0 0 1962 413" version="1.1" xmlns="http://www.w3.org/2000/svg" xmlns:xlink="http://www.w3.org/1999/xlink" xml:space="preserve" xmlns:serif="http://www.serif.com/" style="fill-rule:evenodd;clip-rule:evenodd;stroke-linejoin:round;stroke-miterlimit:1.41421;">
    <g transform="matrix(1,0,0,1,-655.779,-825.972)">
        <g transform="matrix(4.69388,0,0,4.69388,-27970,-4938.31)">
            <path d="M6214.91,1229.54C6211.28,1228.04 6207.28,1229.67 6205.78,1233.17L6181.41,1291.04L6165.28,1252.67C6164.03,1249.92 6161.41,1248.42 6158.78,1248.42C6156.03,1248.42 6153.41,1249.92 6152.28,1252.67L6136.16,1291.04L6111.66,1233.17C6110.28,1229.67 6106.16,1228.04 6102.78,1229.54C6099.16,1230.92 6097.66,1235.04 6099.03,1238.42L6129.78,1311.29C6130.03,1311.67 6130.16,1312.17 6130.41,1312.42L6130.41,1312.54C6130.66,1312.79 6130.78,1313.04 6131.03,1313.29C6131.16,1313.54 6131.16,1313.54 6131.28,1313.67C6131.66,1313.79 6131.78,1314.04 6132.16,1314.29L6132.28,1314.29C6132.53,1314.54 6133.03,1314.92 6133.41,1315.04C6133.53,1315.04 6133.53,1315.04 6133.66,1315.17C6133.91,1315.17 6134.16,1315.29 6134.53,1315.42C6134.66,1315.42 6134.78,1315.42 6134.91,1315.42C6135.28,1315.54 6135.78,1315.54 6136.16,1315.54C6136.53,1315.54 6136.91,1315.54 6137.28,1315.42C6137.41,1315.42 6137.53,1315.42 6137.66,1315.42C6137.91,1315.29 6138.16,1315.17 6138.66,1315.17C6138.66,1315.04 6138.78,1315.04 6138.78,1315.04L6138.91,1315.04C6139.16,1314.92 6139.53,1314.54 6139.91,1314.29L6140.16,1314.29C6140.41,1314.04 6140.66,1313.79 6140.91,1313.67C6140.91,1313.54 6141.03,1313.54 6141.03,1313.29C6141.28,1313.04 6141.53,1312.79 6141.78,1312.54C6141.78,1312.54 6141.78,1312.42 6141.91,1312.42C6142.03,1312.17 6142.28,1311.67 6142.41,1311.29L6158.78,1272.54L6175.16,1311.29C6175.28,1311.67 6175.41,1312.17 6175.66,1312.42C6175.66,1312.42 6175.66,1312.54 6175.91,1312.54C6176.03,1312.79 6176.28,1313.04 6176.41,1313.29C6176.53,1313.54 6176.53,1313.54 6176.66,1313.67C6176.91,1313.79 6177.16,1314.04 6177.53,1314.29L6177.66,1314.29C6177.91,1314.54 6178.28,1314.92 6178.78,1315.04C6178.91,1315.04 6178.91,1315.04 6179.03,1315.17C6179.28,1315.17 6179.53,1315.29 6179.91,1315.42C6179.91,1315.42 6180.03,1315.42 6180.28,1315.42C6180.66,1315.54 6181.03,1315.54 6181.41,1315.54C6181.91,1315.54 6182.28,1315.54 6182.66,1315.42C6182.66,1315.42 6182.78,1315.42 6182.91,1315.42C6183.28,1315.29 6183.66,1315.17 6183.91,1315.17C6183.91,1315.04 6184.03,1315.04 6184.03,1315.04L6184.16,1315.04C6184.66,1314.92 6184.91,1314.54 6185.28,1314.29L6185.41,1314.29C6185.66,1314.04 6186.03,1313.79 6186.28,1313.67C6186.28,1313.54 6186.41,1313.54 6186.41,1313.29C6186.66,1313.04 6186.91,1312.79 6187.03,1312.54L6187.16,1312.42C6187.41,1312.17 6187.66,1311.67 6187.78,1311.29L6218.41,1238.42C6219.91,1235.04 6218.28,1230.92 6214.91,1229.54Z" style="fill:white;fill-rule:nonzero;"/>
        </g>
        <g transform="matrix(4.69388,0,0,4.69388,-28041.5,-4938.31)">
            <path d="M6258.66,1315.92C6266.91,1315.92 6274.41,1312.29 6279.53,1306.42C6285.16,1300.92 6288.28,1293.17 6288.28,1284.42C6288.28,1275.92 6285.16,1268.54 6279.53,1262.54C6274.41,1256.67 6266.91,1253.04 6258.66,1253.04C6250.03,1253.04 6242.78,1256.67 6237.16,1262.54C6231.78,1268.54 6228.53,1275.92 6228.53,1284.42C6228.53,1293.17 6231.78,1300.92 6237.16,1306.42C6242.78,1312.29 6250.03,1315.92 6258.66,1315.92ZM6246.66,1271.42C6249.78,1268.67 6253.91,1266.67 6258.66,1266.67C6263.03,1266.67 6267.03,1268.67 6270.16,1271.42C6273.28,1274.79 6275.03,1279.29 6275.03,1284.42C6275.03,1289.79 6273.28,1294.17 6270.16,1297.67C6267.03,1300.67 6263.03,1302.29 6258.66,1302.29C6253.91,1302.29 6249.78,1300.67 6246.66,1297.67C6243.78,1294.17 6242.16,1289.79 6242.16,1284.42C6242.16,1279.29 6243.78,1274.79 6246.66,1271.42Z" style="fill:white;fill-rule:nonzero;"/>
        </g>
        <g transform="matrix(4.69388,0,0,4.69388,-28091,-4938.31)">
            <path d="M6338.91,1253.17C6332.66,1253.04 6327.28,1255.29 6323.16,1258.04C6322.28,1258.67 6321.28,1259.67 6320.53,1260.54L6320.53,1259.67C6320.53,1256.04 6317.41,1253.17 6313.66,1253.17C6310.03,1253.17 6307.03,1256.04 6307.03,1259.67L6307.03,1308.92C6307.03,1312.54 6310.03,1315.54 6313.66,1315.54C6317.41,1315.54 6320.53,1312.54 6320.53,1308.92L6320.53,1285.17C6321.16,1283.42 6322.66,1278.67 6325.66,1274.67C6327.16,1272.29 6329.03,1270.17 6331.41,1268.67C6333.53,1267.04 6336.03,1266.29 6338.91,1266.29C6342.66,1266.29 6345.53,1263.17 6345.53,1259.67C6345.53,1256.04 6342.66,1253.17 6338.91,1253.17Z" style="fill:white;fill-rule:nonzero;"/>
        </g>
        <g transform="matrix(4.69388,0,0,4.69388,-28126.4,-4938.31)">
            <path d="M6368.78,1315.54C6372.66,1315.54 6375.78,1312.42 6375.78,1308.67L6375.78,1297.67L6382.66,1290.79L6401.03,1313.04C6402.28,1314.67 6404.28,1315.54 6406.28,1315.54C6407.78,1315.54 6409.41,1315.04 6410.66,1313.92C6413.66,1311.54 6414.03,1307.17 6411.66,1304.17L6392.41,1281.04L6411.16,1262.29C6413.91,1259.67 6413.91,1255.29 6411.16,1252.54C6408.53,1249.92 6404.03,1249.92 6401.41,1252.54L6375.78,1278.17L6375.78,1234.92C6375.78,1231.17 6372.66,1228.04 6368.78,1228.04C6364.91,1228.04 6361.91,1231.17 6361.91,1234.92L6361.91,1308.67C6361.91,1312.42 6364.91,1315.54 6368.78,1315.54Z" style="fill:white;fill-rule:nonzero;"/>
        </g>
        <path d="M2418.32,1050.11L2418.32,1092.16C2422.26,1097.18 2425.09,1103.06 2426.32,1109.41C2428.93,1122.98 2424.3,1137.74 2414.33,1147.43C2402.67,1158.75 2384.16,1162.53 2368.79,1156.28C2352.13,1149.51 2340.96,1131.25 2342.68,1113.34C2343.51,1104.64 2347.37,1096.47 2353.19,1089.95L2353.19,858.243C2353.19,840.054 2367.86,825.972 2385.46,825.972L2468.77,825.972C2530.38,825.972 2580.25,875.845 2580.25,937.452C2580.25,962.681 2572.04,985.564 2557.96,1004.34C2593.16,1026.64 2617.22,1065.95 2617.22,1110.54C2617.22,1180.36 2560.89,1236.68 2491.66,1236.69L2069.55,1236.69C2060.75,1236.69 2051.36,1233.17 2045.49,1226.12C2033.17,1212.63 2034.34,1192.68 2047.25,1180.36L2220.93,1023.12C2237.94,1007.86 2245.57,987.911 2245.57,966.789C2245.57,948.013 2239.12,930.411 2226.21,915.743C2210.95,898.727 2190.42,891.1 2169.88,891.1C2151.69,891.1 2133.5,897.554 2118.83,910.462L2101.05,926.527C2099.11,933.859 2095.24,940.699 2089.77,946.014C2078.12,957.34 2059.6,961.118 2044.23,954.869C2027.58,948.097 2016.4,929.833 2018.12,911.926C2020.05,891.717 2038.37,874.379 2059.41,873.912C2059.77,873.906 2060.13,873.904 2060.49,873.905C2061.18,873.912 2061.86,873.936 2062.54,873.979L2075.42,862.35C2101.82,837.707 2136.44,825.972 2169.88,825.972C2208.02,825.972 2246.74,841.814 2274.32,872.324C2298.96,898.727 2310.7,933.345 2310.7,966.789C2310.7,1004.93 2294.86,1043.65 2264.34,1071.23L2153.45,1171.56L2278.43,1171.56C2279.32,1171.56 2280.21,1171.6 2281.09,1171.66L2353.19,1171.66L2353.19,1171.43L2418.32,1171.43L2418.32,1171.56L2491.66,1171.56C2525.1,1170.97 2552.09,1144.57 2552.09,1110.54C2552.09,1077.1 2525.1,1050.69 2491.66,1050.11L2418.32,1050.11ZM2384.77,1090.93C2399.41,1090.93 2411.3,1102.75 2411.3,1117.3C2411.3,1131.85 2399.41,1143.67 2384.77,1143.67C2370.13,1143.67 2358.24,1131.85 2358.24,1117.3C2358.24,1102.75 2370.13,1090.93 2384.77,1090.93ZM2468.77,891.1L2418.32,891.1L2418.32,984.977L2468.77,984.977C2494.59,984.977 2515.13,963.268 2515.13,937.452C2515.13,911.636 2494.59,891.101 2468.77,891.1ZM2060.21,889.517C2074.86,889.517 2086.74,901.333 2086.74,915.887C2086.74,930.441 2074.86,942.257 2060.21,942.257C2045.57,942.257 2033.68,930.441 2033.68,915.887C2033.68,901.333 2045.57,889.517 2060.21,889.517Z" style="fill:rgb(46,204,113);"/>
    </g>
</svg>
