<?xml version="1.0" encoding="UTF-8" standalone="no"?>
<!DOCTYPE svg PUBLIC "-//W3C//DTD SVG 1.1//EN" "http://www.w3.org/Graphics/SVG/1.1/DTD/svg11.dtd">
<svg width="100%" height="100%" viewBox="0 0 1063 411" version="1.1" xmlns="http://www.w3.org/2000/svg" xmlns:xlink="http://www.w3.org/1999/xlink" xml:space="preserve" xmlns:serif="http://www.serif.com/" style="fill-rule:evenodd;clip-rule:evenodd;stroke-linejoin:round;stroke-miterlimit:1.41421;">
    <g transform="matrix(1,0,0,1,-734.416,-1481.69)">
        <path d="M924.243,1892C922.479,1892.59 920.72,1892.59 918.962,1892.59C917.203,1892.59 914.857,1892.59 913.095,1892L911.335,1892C909.573,1891.41 908.4,1890.83 907.227,1890.83C906.641,1890.24 906.641,1890.24 906.054,1890.24C904.295,1889.66 901.949,1887.9 900.773,1886.72L900.187,1886.72C898.426,1885.55 897.839,1884.38 896.079,1883.79C895.493,1883.2 895.493,1883.2 894.906,1882.03C894.466,1881.59 894.108,1881.15 893.771,1880.71L893.107,1879.83C892.77,1879.39 892.412,1878.95 891.972,1878.51L891.972,1877.92C890.799,1876.75 890.212,1874.4 889.039,1872.64L757.746,1561.49C742.744,1553.86 732.978,1536.72 734.589,1519.9C736.523,1499.69 754.835,1482.35 775.878,1481.88C776.24,1481.88 776.602,1481.87 776.964,1481.88C796.351,1482.06 814.543,1496.86 818.23,1515.97C819.547,1522.79 819.029,1529.91 816.921,1536.54L918.962,1777.59L994.651,1597.46C999.932,1584.55 1012.25,1577.51 1025.16,1577.51C1037.48,1577.51 1049.8,1584.55 1055.67,1597.46L1131.36,1777.59C1131.36,1777.59 1205.26,1622.29 1238.63,1552.32C1241.38,1546.54 1257.63,1545.54 1261.17,1540.37C1325.84,1572.78 1282.64,1553.12 1287.98,1556.44C1283.53,1558.99 1291.98,1562.85 1287.98,1566.37C1287.95,1566.39 1288.01,1566.34 1287.98,1566.37C1287.98,1566.36 1318.38,1548.67 1294.65,1566.37C1284.96,1573.59 1282.4,1584.44 1277.71,1595.58C1251.43,1658.12 1161.28,1872.64 1161.28,1872.64C1160.7,1874.4 1159.52,1876.75 1158.35,1877.92L1157.76,1878.51C1157.18,1879.68 1156,1880.85 1154.83,1882.03C1154.83,1883.2 1154.24,1883.2 1154.24,1883.79C1153.07,1884.37 1151.31,1885.55 1150.14,1886.72L1149.55,1886.72C1147.79,1887.9 1146.62,1889.65 1144.27,1890.24L1143.68,1890.24C1143.64,1890.24 1143.1,1890.27 1143.1,1890.83C1141.92,1890.83 1140.16,1891.41 1138.4,1892L1137.23,1892C1135.46,1892.59 1133.7,1892.59 1131.36,1892.59C1129.6,1892.59 1127.84,1892.59 1126.08,1892L1124.32,1892C1122.56,1891.41 1121.38,1890.83 1120.21,1890.83C1119.63,1890.24 1119.63,1890.24 1119.04,1890.24C1116.69,1889.66 1114.93,1887.9 1113.76,1886.72L1113.17,1886.72C1111.41,1885.55 1110.24,1884.38 1109.06,1883.79C1108.48,1883.2 1108.48,1883.2 1107.89,1882.03C1107.67,1881.59 1107.37,1881.15 1107.05,1880.71L1106.39,1879.83C1106.07,1879.39 1105.76,1878.95 1105.54,1878.51C1104.37,1878.51 1104.37,1877.92 1104.37,1877.92C1103.2,1876.75 1102.61,1874.4 1102.02,1872.64L1025.16,1690.75L948.299,1872.64C947.712,1874.4 946.539,1876.75 945.952,1877.92C945.365,1877.92 945.365,1878.51 945.365,1878.51C944.192,1879.68 943.018,1880.85 941.845,1882.03C941.845,1883.2 941.258,1883.2 941.258,1883.79C940.086,1884.37 938.914,1885.55 937.738,1886.72L936.564,1886.72C934.804,1887.9 933.048,1889.65 931.87,1890.24L931.284,1890.24C931.237,1890.24 930.697,1890.27 930.697,1890.83C928.353,1890.83 927.18,1891.41 926.003,1892L924.243,1892ZM776.683,1497.49C791.326,1497.49 803.213,1509.3 803.213,1523.86C803.213,1538.41 791.326,1550.23 776.683,1550.23C762.041,1550.23 750.153,1538.41 750.153,1523.86C750.153,1509.3 762.041,1497.49 776.683,1497.49Z" style="fill:white;"/>
        <path d="M1575.92,1892.59L1404.18,1892.59L1404.18,1892.4L1249.16,1892.4C1240.36,1892.4 1230.97,1888.88 1225.1,1881.84C1212.78,1868.35 1213.95,1848.4 1226.86,1836.08L1400.53,1678.83C1417.55,1663.58 1425.18,1643.63 1425.18,1622.5C1425.18,1603.73 1418.72,1586.13 1405.81,1571.46C1390.56,1554.44 1370.02,1546.82 1349.49,1546.82C1331.33,1546.82 1313.18,1553.25 1298.52,1566.11C1298.5,1566.13 1298.47,1566.15 1298.44,1566.18C1298.44,1566.18 1298.44,1566.18 1298.44,1566.18C1289.47,1574.28 1282.4,1584.25 1277.71,1595.39L1267.9,1618.74C1264.65,1630.41 1253.93,1638.97 1241.24,1638.97C1225.96,1638.97 1213.55,1626.57 1213.55,1611.29C1213.55,1606.1 1214.98,1601.24 1217.48,1597.08L1217.37,1597.03L1239.18,1551.3C1259.46,1508.77 1302.37,1481.69 1349.49,1481.69C1349.49,1481.69 1349.49,1481.69 1349.49,1481.69C1387.63,1481.69 1426.35,1497.53 1453.93,1528.04C1478.57,1554.44 1490.3,1589.06 1490.3,1622.5C1490.3,1660.64 1474.46,1699.37 1443.95,1726.94L1333.06,1827.28L1458.03,1827.28C1458.71,1827.28 1459.39,1827.3 1460.05,1827.34L1597.92,1827.34L1597.92,1827.46L1671.26,1827.46C1704.71,1826.87 1731.7,1800.47 1731.7,1766.44C1731.7,1733 1704.71,1706.6 1671.26,1706.01L1597.92,1706.01L1597.92,1748.06C1601.87,1753.08 1604.7,1758.96 1605.92,1765.31C1608.54,1778.88 1603.91,1793.64 1593.93,1803.33C1582.28,1814.65 1563.77,1818.43 1548.4,1812.18C1531.74,1805.41 1520.57,1787.15 1522.28,1769.24C1523.12,1760.54 1526.98,1752.38 1532.8,1745.86L1532.8,1514.14C1532.8,1495.96 1547.46,1481.88 1565.07,1481.87L1648.38,1481.87C1709.99,1481.88 1759.86,1531.75 1759.86,1593.35C1759.86,1618.58 1751.65,1641.47 1737.57,1660.24C1772.77,1682.54 1796.83,1721.85 1796.83,1766.44C1796.83,1836.26 1740.5,1892.59 1671.26,1892.59L1575.92,1892.59ZM1564.38,1746.83C1579.02,1746.83 1590.91,1758.65 1590.91,1773.2C1590.91,1787.76 1579.02,1799.57 1564.38,1799.57C1549.73,1799.57 1537.85,1787.76 1537.85,1773.2C1537.85,1758.65 1549.73,1746.83 1564.38,1746.83ZM1648.38,1547L1597.92,1547L1597.92,1640.88L1648.38,1640.88C1674.2,1640.88 1694.73,1619.17 1694.73,1593.35C1694.73,1567.54 1674.2,1547 1648.38,1547Z" style="fill:rgb(46,204,113);"/>
    </g>
</svg>
